<?xml version="1.0" encoding="UTF-8"?>
<svg width="170px" height="170px" viewBox="0 0 170 170" version="1.1" xmlns="http://www.w3.org/2000/svg" xmlns:xlink="http://www.w3.org/1999/xlink">
    <!-- Generator: Sketch 52.5 (67469) - http://www.bohemiancoding.com/sketch -->
    <title>Artboard Copy 3</title>
    <desc>Created with Sketch.</desc>
    <g id="Artboard-Copy-3" stroke="none" stroke-width="1" fill="none" fill-rule="evenodd">
        <g id="bootstrap-outline" transform="translate(50.000000, 50.000000)" fill="#FFFFFF" fill-rule="nonzero">
            <g id="bg_1_">
                <path d="M58.3333333,0.68627451 C61.25,0.68627451 64.0065359,1.83006536 66.0882353,3.91176471 C68.1699346,5.99346405 69.3137255,8.75 69.3137255,11.6666667 L69.3137255,58.3333333 C69.3137255,61.25 68.1699346,64.0065359 66.0882353,66.0882353 C64.0065359,68.1699346 61.25,69.3137255 58.3333333,69.3137255 L11.6666667,69.3137255 C8.75,69.3137255 5.99346405,68.1699346 3.91176471,66.0882353 C1.83006536,64.0065359 0.68627451,61.25 0.68627451,58.3333333 L0.68627451,11.6666667 C0.68627451,8.75 1.83006536,5.99346405 3.91176471,3.91176471 C5.99346405,1.83006536 8.75,0.68627451 11.6666667,0.68627451 L58.3333333,0.68627451 Z M58.3333333,0 L11.6666667,0 C5.25,0 0,5.25 0,11.6666667 L0,58.3333333 C0,64.75 5.25,70 11.6666667,70 L58.3333333,70 C64.75,70 70,64.75 70,58.3333333 L70,11.6666667 C70,5.25 64.75,0 58.3333333,0 Z" id="Shape"></path>
            </g>
            <g id="B_2_" transform="translate(19.000000, 15.000000)">
                <path d="M0.0334459459,0 L19.3763514,0 C22.9439189,0 25.8091216,0.83837535 27.9608108,2.52661064 C30.1125,4.21484594 31.1939189,6.75294118 31.1939189,10.1638655 C31.1939189,12.2310924 30.7033784,13.9997199 29.7222973,15.4697479 C28.7412162,16.9397759 27.3364865,18.0882353 25.5081081,18.8921569 L25.5081081,19.0070028 C27.9608108,19.5467787 29.8226351,20.7411765 31.0824324,22.5901961 C32.3422297,24.4507003 32.9777027,26.7705882 32.9777027,29.5728291 C32.9777027,31.1806723 32.6989865,32.6851541 32.1415541,34.0747899 C31.5841216,35.4759104 30.714527,36.6817927 29.5216216,37.692437 C28.3287162,38.7030812 26.8125,39.5070028 24.9506757,40.1042017 C23.0888514,40.7014006 20.8814189,41 18.3172297,41 L0.0334459459,41 L0.0334459459,0 Z M7.00135135,17.1694678 L18.372973,17.1694678 C20.0452703,17.1694678 21.4388514,16.6871148 22.5537162,15.6994398 C23.6685811,14.7117647 24.2260135,13.3106443 24.2260135,11.4731092 C24.2260135,9.40588235 23.7243243,7.94733894 22.7209459,7.10896359 C21.7175676,6.27058824 20.2682432,5.84565826 18.372973,5.84565826 L7.00135135,5.84565826 L7.00135135,17.1694678 Z M7.00135135,35.1428571 L19.3206081,35.1428571 C21.4388514,35.1428571 23.0888514,34.580112 24.2483108,33.4431373 C25.4189189,32.3176471 26.0097973,30.7098039 26.0097973,28.642577 C26.0097973,26.6098039 25.4300676,25.0593838 24.2483108,23.9568627 C23.0665541,22.8543417 21.4388514,22.3260504 19.3206081,22.3260504 L7.00135135,22.3260504 L7.00135135,35.1428571 Z" id="Shape"></path>
            </g>
        </g>
    </g>
</svg>