<?xml version="1.0" encoding="UTF-8"?>
<svg width="43px" height="42px" viewBox="0 0 43 42" version="1.1" xmlns="http://www.w3.org/2000/svg" xmlns:xlink="http://www.w3.org/1999/xlink">
    <!-- Generator: Sketch 52.5 (67469) - http://www.bohemiancoding.com/sketch -->
    <title>Fill 52</title>
    <desc>Created with Sketch.</desc>
    <g id="Home" stroke="none" stroke-width="1" fill="none" fill-rule="evenodd">
        <g id="Extra-large:-Desktops---12-col" transform="translate(-11.000000, -12.000000)" fill="#FFFFFE">
            <path d="M11,33.5314877 C11,43.0448205 17.1604554,51.1158748 25.7031339,53.962993 C26.7776444,54.1623092 27.17213,53.4959016 27.17213,52.9271911 C27.17213,52.4137471 27.1521921,50.7175991 27.1429352,48.9184058 C21.1615649,50.2209134 19.8994245,46.3779277 19.8994245,46.3779277 C18.9213993,43.8891506 17.5122169,43.2273784 17.5122169,43.2273784 C15.5615069,41.8909977 17.659259,41.9184527 17.659259,41.9184527 C19.8182488,42.06999 20.9550652,44.1373152 20.9550652,44.1373152 C22.872664,47.4290617 25.9847568,46.4774075 27.2116498,45.927238 C27.4046202,44.5359474 27.9618133,43.5853629 28.5766839,43.0480295 C23.8012006,42.5035649 18.7811219,40.6573059 18.7811219,32.4069028 C18.7811219,30.0561137 19.621006,28.135334 20.9963651,26.6274488 C20.7731319,26.0847671 20.0372097,23.8951424 21.204645,20.9292902 C21.204645,20.9292902 23.0100931,20.350596 27.1187249,23.1363863 C28.8337404,22.6593112 30.6730118,22.4200606 32.500178,22.4118597 C34.3273442,22.4200606 36.1680397,22.6593112 37.8862596,23.1363863 C41.9899069,20.350596 43.7928628,20.9292902 43.7928628,20.9292902 C44.9631463,23.8951424 44.2268681,26.0847671 44.0036349,26.6274488 C45.3821983,28.135334 46.2163858,30.0561137 46.2163858,32.4069028 C46.2163858,40.6769166 41.1866943,42.49786 36.3991058,43.0309147 C37.1702753,43.699105 37.8574208,45.0094569 37.8574208,47.0183065 C37.8574208,49.8989412 37.8324984,52.21764 37.8324984,52.9271911 C37.8324984,53.5001803 38.2195073,54.1715797 39.3093273,53.9601406 C47.8473774,51.1098133 54,43.0416115 54,33.5314877 C54,21.6395544 44.3739102,12 32.500178,12 C20.627514,12 11,21.6395544 11,33.5314877 Z" id="Fill-52"></path>
        </g>
    </g>
</svg>