<?xml version="1.0" encoding="UTF-8"?>
<svg width="170px" height="170px" viewBox="0 0 170 170" version="1.1" xmlns="http://www.w3.org/2000/svg" xmlns:xlink="http://www.w3.org/1999/xlink">
    <!-- Generator: Sketch 52.5 (67469) - http://www.bohemiancoding.com/sketch -->
    <title>Artboard</title>
    <desc>Created with Sketch.</desc>
    <g id="Artboard" stroke="none" stroke-width="1" fill="none" fill-rule="evenodd">
        <g id="Logo_jQuery" transform="translate(6.000000, 67.000000)" fill-rule="nonzero">
            <g id="g12" transform="translate(79.000000, 18.000001) scale(-1, 1) rotate(-180.000000) translate(-79.000000, -18.000001) translate(0.000000, 0.000001)">
                <path d="M17.1935612,32.5928407 L16.3974634,31.5111701 C15.3333764,29.9636788 15.2327269,28.0415848 15.9709825,26.3322625 C16.7491112,24.5184273 18.3408442,23.0919333 20.2026211,22.4176452 C20.2793877,22.3891003 20.3575038,22.3634417 20.4348163,22.3380417 L20.5390672,22.3052638 C20.6495201,22.2713246 20.7572283,22.2329651 20.8707746,22.2116127 C26.0169324,21.2293996 27.4132955,24.8193846 27.7845045,25.3489256 C26.5614709,23.6090374 24.5057645,23.1939381 21.9843637,23.7989994 C21.7861581,23.8461995 21.568649,23.9148645 21.377813,23.9816191 C21.1305451,24.0690518 20.8884176,24.1689213 20.6527954,24.2813027 C20.2048199,24.4934787 19.7786725,24.7539038 19.38283,25.049242 C17.1270301,26.7405814 15.7220313,29.964915 17.1935612,32.5928407 Z M11.355511,31.3332329 L9.88178242,29.2775906 C8.07643743,26.7108004 8.17560847,23.2735809 9.58324576,20.5586702 C9.81950483,20.1033009 10.0835591,19.6636276 10.3793435,19.2428718 C10.6499713,18.8601009 10.9544369,18.402896 11.3128629,18.0956454 C11.4435594,17.9538201 11.5775844,17.8153288 11.7156505,17.6788979 L11.82464,17.5758816 C11.9589758,17.4466431 12.0950858,17.320214 12.2369049,17.1965945 L12.2511134,17.1825469 L12.2558445,17.1778643 C12.4123118,17.0425572 12.5747385,16.9130938 12.7391895,16.7845296 L12.8481791,16.7002435 C13.013267,16.5752755 13.182851,16.4518807 13.3552176,16.3350041 L13.369426,16.3209564 C13.4449416,16.2688115 13.5249456,16.2207872 13.6016212,16.1711146 L13.7106108,16.1008763 C13.8339377,16.0226589 13.9585459,15.9487119 14.0849663,15.8761136 L14.1370917,15.8433357 C14.2463845,15.7815259 14.357118,15.7200533 14.4687991,15.660716 L14.587266,15.5998427 C14.6645785,15.5605093 14.7415346,15.5209885 14.8194612,15.4827788 L14.8526319,15.4640486 C15.0114876,15.3865055 15.172777,15.3147687 15.335977,15.2439684 L15.4449666,15.2018254 C15.5762772,15.1472081 15.705101,15.0922911 15.8382768,15.0426185 C15.8947087,15.0214908 15.9517321,15.0017491 16.0088692,14.9817453 C16.1290799,14.937467 16.2516714,14.8959983 16.3737473,14.8553162 C16.4290192,14.8377847 16.4850569,14.8208901 16.539601,14.8038081 C16.7133095,14.7505393 16.8852439,14.683635 17.0655941,14.6539663 C26.3858062,13.1282545 28.5379541,20.2168211 28.5379541,20.2168211 C26.5982051,17.4558359 22.8409952,16.1399625 18.8331434,17.1684767 C18.6545673,17.2145531 18.4766433,17.2637012 18.3024116,17.3183185 L18.1460353,17.3698267 C18.0220942,17.4096097 17.8991085,17.4526517 17.7764184,17.4962557 C17.7205324,17.5169338 17.6658367,17.5360012 17.6105648,17.5571289 C17.4768431,17.6074758 17.3432124,17.661269 17.2125159,17.7163358 L17.1035263,17.7584788 C16.9403035,17.8299534 16.779742,17.9050241 16.6201812,17.9832416 C16.5380012,18.022575 16.45479,18.064306 16.37377,18.104988 L16.2363484,18.1752264 C16.1319459,18.2311923 16.025428,18.2895932 15.9235957,18.348481 L15.8525156,18.390624 C15.7260725,18.4641214 15.6009411,18.5376188 15.4781601,18.6153867 L15.3644318,18.6903076 C15.2833891,18.7424526 15.2019369,18.796021 15.1227593,18.8495145 C14.9503927,18.9666159 14.7849106,19.0909097 14.6204595,19.214754 L14.5067313,19.29904 C12.7516769,20.6671706 11.358938,22.5394815 10.6968349,24.6605673 C10.0039796,26.8605448 10.1545179,29.3290013 11.355511,31.3332105 L11.355511,31.3332329 Z M4.08164167,28.734414 L2.13404462,26.2901195 C-0.362290466,22.7451619 -0.0521667965,18.1313452 1.85446268,14.3636478 C1.89986299,14.2739675 1.94935753,14.1852986 1.99662299,14.0967421 C2.02666999,14.0396523 2.05125804,13.9832369 2.08191918,13.92817 L2.1387833,13.8298363 C2.17128683,13.7698247 2.20515511,13.7147953 2.23829552,13.6565817 C2.29843502,13.5529661 2.36109928,13.4500248 2.42310393,13.347533 C2.45749535,13.2911176 2.48767883,13.2353764 2.52261614,13.178961 C2.59199038,13.0692768 2.66407134,12.9597424 2.73585661,12.851182 L2.82589148,12.7153879 C2.92592685,12.5686197 3.02959394,12.4242078 3.13390549,12.2799101 L3.13864417,12.2658624 L3.19076961,12.1956241 C3.28159299,12.0717798 3.37588888,11.9508575 3.47035232,11.8303847 L3.57460322,11.6992731 C3.65926253,11.5943089 3.74806913,11.4898317 3.83523046,11.3855418 L3.930004,11.2684779 C4.04782647,11.1320469 4.16806755,10.9986128 4.29014346,10.865778 L4.29962081,10.8564129 L4.31382926,10.8423652 C4.43287999,10.7138009 4.55538048,10.5887205 4.6787074,10.4630781 L4.79243565,10.3460142 C4.88876347,10.2509396 4.98804065,10.1583373 5.08623363,10.0650608 L5.20470814,9.95266447 C5.3361325,9.83084308 5.46707921,9.70898423 5.60275701,9.59210762 L5.61223436,9.58742506 L5.67857584,9.52655182 C5.79764932,9.42473431 5.9207412,9.32621332 6.04345398,9.2268682 L6.19035297,9.10980429 C6.28977421,9.03091257 6.3911819,8.95209578 6.4936283,8.87567645 L6.65474332,8.75392249 C6.76706134,8.67210886 6.88176766,8.58864697 6.99592807,8.51042955 L7.11913368,8.42614353 L7.15230442,8.40273075 C7.26096039,8.3294581 7.37358168,8.25835816 7.48401181,8.18733314 L7.62617213,8.09368201 C7.79612762,7.98759401 7.96836527,7.8813187 8.14268793,7.77995072 L8.28484824,7.70034725 C8.41313371,7.62752413 8.53862146,7.55462609 8.66868109,7.48494965 C8.73923809,7.44718951 8.81548909,7.41366241 8.88666023,7.37725085 C8.97871188,7.32937639 9.0676777,7.28352479 9.1615035,7.23677415 L9.22784498,7.20399625 L9.33683456,7.15248813 C9.48220201,7.0839355 9.62959382,7.01609462 9.77753153,6.9511382 L9.87230507,6.90899519 C10.0410323,6.83549778 10.2116247,6.76548419 10.3840822,6.69828014 L10.5072878,6.65145457 C10.6673944,6.59076864 10.8286611,6.52948334 10.9906329,6.47351742 L11.0522357,6.45010464 C11.2308345,6.38896918 11.4113667,6.3325912 11.5924448,6.27685004 L11.7203891,6.23938959 C11.9044924,6.18409796 12.0851156,6.11947868 12.2748144,6.08486522 C24.3466132,3.90916212 27.8555846,13.2538594 27.8555846,13.2538594 C24.9113877,9.46211235 19.6829285,8.4598954 14.7294491,9.5733699 C14.5417065,9.61517576 14.3579671,9.67507503 14.1750239,9.72789427 L14.0376022,9.77003727 C13.8590034,9.82398033 13.6830582,9.8783729 13.5068704,9.93860931 L13.4357902,9.96670465 C13.2780946,10.0210972 13.1212634,10.0803971 12.9666612,10.1399592 L12.8339782,10.1914674 C12.6633859,10.2582219 12.4938929,10.325351 12.3269398,10.3974999 L12.2226889,10.4396429 C12.0790956,10.503925 11.9385502,10.5691062 11.796208,10.6363102 L11.6730024,10.6971835 C11.5619354,10.7500027 11.4553265,10.8046575 11.3460336,10.861073 C11.2718601,10.8986083 11.1963521,10.9388034 11.1233158,10.9781369 C10.9895032,11.0498362 10.8565776,11.1229215 10.7252669,11.198217 L10.592584,11.2684554 C10.4176472,11.3695986 10.2460237,11.4758739 10.0760682,11.5821867 L9.93864655,11.6758378 C9.81531963,11.7547295 9.69058249,11.8326098 9.56902973,11.9146482 L9.45530148,11.9989342 C9.33686488,12.0807478 9.21882254,12.1628237 9.10463938,12.2471097 L8.95300171,12.3594911 C8.84805328,12.4388323 8.74394644,12.5207209 8.64024902,12.602984 L8.49808871,12.7153654 C8.3661412,12.8221277 8.23834855,12.9281033 8.10951719,13.0384618 L8.0668691,13.0712397 C7.92816612,13.1919373 7.78957688,13.3175422 7.65460419,13.4411617 L7.54087594,13.553543 C7.4414547,13.6474938 7.34399717,13.7420815 7.24707796,13.839179 L7.12861103,13.9515603 C7.00583001,14.0760789 6.8862713,14.2029574 6.76847157,14.3308474 L6.74951687,14.3495776 C6.62496169,14.48466 6.50432634,14.6222897 6.38463873,14.7616426 L6.28986519,14.874024 C6.20020184,14.980112 6.11104647,15.0890095 6.02449927,15.1971204 L5.92972573,15.3141843 C5.8253232,15.4470191 5.71988194,15.5822513 5.62171172,15.7168842 C2.8718756,19.4232214 1.88356953,24.5364983 4.08164167,28.7343915 L4.08164167,28.734414 Z" id="signet" fill="#21ACE2"></path>
                <path d="M63.5662544,35.3180886 C54.5257683,35.3180886 50.5975567,28.8855669 49.0990732,21.8931988 C47.6017271,14.8500343 49.5641081,8.67505325 58.552734,8.72584963 L65.6465336,8.74926241 L72.2712042,8.77267519 C72.5264104,8.77469806 72.7890089,8.97432481 72.8540615,9.21751807 L74.0102987,13.5722957 C74.0748963,13.8166128 73.9148428,14.0160148 73.6596366,14.0171386 L72.5555248,14.0218212 L71.4466744,14.0311863 C71.2294534,14.0323101 71.1079917,14.1699772 71.1339217,14.3542827 L71.1623538,14.4572989 C71.1623538,14.4572989 73.6639204,20.4644571 74.2330165,23.9347935 C75.0079608,28.5804141 72.6574633,35.3180886 63.5662544,35.3180886 Z M156.880284,32.747365 L155.420771,32.7379999 C155.165565,32.7361269 154.747424,32.7333174 154.49199,32.7333174 L150.629961,32.7333174 C150.37477,32.7333174 150.049158,32.5619358 149.904951,32.3540303 L141.361109,19.9920808 C141.216901,19.7828267 141.05333,19.811971 140.996238,20.0576366 L140.370733,22.7828846 C140.314323,23.0296759 140.057298,23.2277274 139.802091,23.2277274 L134.309965,23.2277274 C134.054076,23.2277274 133.904144,23.0300861 133.973519,22.7875671 L136.432892,14.2699967 C136.502721,14.0272529 136.510341,13.6293087 136.447108,13.3849935 L135.371428,9.26434364 C135.307513,9.01867799 135.466657,8.81950076 135.72209,8.81950076 L141.147883,8.81950076 C141.402619,8.81950076 141.667485,9.01867799 141.730733,9.26434364 L142.801674,13.3849935 C142.864922,13.6293087 143.041004,13.9936884 143.194992,14.1950757 L157.065107,32.3821256 C157.219095,32.5828387 157.135482,32.7484907 156.880291,32.747365 L156.880284,32.747365 Z M109.75414,30.0080694 C100.817602,30.0080694 98.7021424,24.6477783 97.5141371,19.2381892 C96.3261318,13.7243102 96.426895,8.57132526 105.674139,8.57132526 L106.005846,8.57132526 L106.091143,8.57132526 L106.688216,8.57132526 L106.797205,8.57132526 C106.889325,8.57132526 106.98353,8.57132526 107.076787,8.57132526 L107.143129,8.57132526 C107.509106,8.57207447 107.879406,8.57465924 108.251979,8.57600782 L108.270934,8.57600782 C110.713362,8.58499832 113.15924,8.60492541 114.151632,8.61346827 C114.405701,8.61706447 114.65397,8.81800234 114.706058,9.0629937 L115.080413,10.8704606 L115.156232,11.2216523 L115.601667,13.3803109 C115.6533,13.6271004 115.483201,13.8298363 115.227312,13.8298363 L106.915672,13.8298363 C103.609365,13.8298363 102.625881,14.6956991 102.987309,17.2481027 L116.279298,17.2481027 L116.288776,17.2481027 C116.499855,17.2516989 116.694786,17.398881 116.772121,17.5899293 L116.805291,17.7023106 L116.800553,17.7023106 C118.773965,25.0567715 118.207333,30.0080694 109.75414,30.0080694 Z M62.8175434,29.8348148 C67.8062691,29.9764172 68.7857556,26.3105186 67.5183111,22.0992313 L67.3903668,21.659071 L67.3903668,21.6543884 L66.3905059,18.142471 L65.3859064,14.6305535 C65.3160773,14.3880345 65.0494603,14.1857106 64.7935718,14.1857106 L59.4862534,14.1857106 C55.4575439,14.1857106 54.4723919,17.3003974 55.4536392,21.8931988 C56.4342042,26.5902901 58.3592444,29.5109317 62.324721,29.8067195 C62.4940548,29.8193249 62.6566179,29.8302465 62.8175434,29.8348148 Z M42.5833922,29.7598939 C42.3281861,29.7598939 42.0711602,29.5558112 42.014751,29.3103685 L41.5361446,27.2219482 L41.057539,25.133528 C41.0006749,24.8880871 41.1624722,24.6840026 41.4176777,24.6840026 L46.5070169,24.6840026 C46.7629054,24.6840026 47.0161024,24.8874128 47.0709195,25.133528 L47.5353098,27.2219482 L47.9997002,29.3103685 C48.0542897,29.5571598 47.8900282,29.7598939 47.634822,29.7598939 L42.5833922,29.7598939 Z M79.4266066,29.7037032 C79.171173,29.7037032 78.9190753,29.500293 78.8674427,29.2541778 L77.8533658,24.4967003 L76.8345502,19.7392228 L76.8345502,19.7345402 L76.7397767,19.2896973 C75.5708777,14.0158649 75.8828722,8.98597501 82.2366421,8.82886587 C82.3405897,8.82594396 82.4214505,8.82886587 82.4214505,8.82886587 L92.3916271,8.82886587 C92.6468333,8.82886587 92.8973387,9.03092756 92.950791,9.27839131 L95.1021504,19.2662846 L97.2535098,29.2541778 C97.3062797,29.5009673 97.1393266,29.7037032 96.883893,29.7037032 L92.2873762,29.7037032 C92.03217,29.7037032 91.7780632,29.500293 91.7234737,29.2541778 L90.0933687,21.7948651 L88.4585251,14.3308699 C88.4046179,14.0847528 88.1541125,13.8813445 87.8993612,13.8813445 L84.6438901,13.8813445 C81.423561,13.8813445 81.79477,16.0827454 82.4546213,19.0977125 L82.473576,19.1866811 L82.5446561,19.5706507 L82.5588722,19.6408891 L82.7057712,20.4135109 L82.8621475,21.2423234 C82.9101408,21.4920329 82.9854289,21.8599339 83.0327399,22.0898662 L83.7767122,25.672022 L84.5159458,29.2541778 C84.5668961,29.5009673 84.4015352,29.7037032 84.146329,29.7037032 L79.4266066,29.7037032 Z M122.97031,29.6521951 C122.715104,29.6521951 122.459178,29.4494591 122.406408,29.2026697 L122.221599,28.3270316 L121.998882,27.287504 L121.937279,26.9971855 L120.022853,18.1377884 L118.203201,9.72323419 C118.149294,9.47644472 118.13413,9.17256553 118.165292,9.04894603 C118.196226,8.92577606 118.682263,8.82886587 118.937696,8.82886587 L122.776025,8.82886587 C123.031913,8.82886587 123.352361,8.87145841 123.491565,8.92719956 C123.630996,8.98294072 123.838436,9.48045299 123.889614,9.72791674 L124.571983,13.0572145 L125.254353,16.3911948 L125.254353,16.3958774 L125.344388,16.8407202 L126.173656,20.6710515 L126.903412,24.0518574 C126.95732,24.2975231 127.208052,24.4962508 127.462576,24.4967003 L139.531987,24.5013828 C139.786511,24.5025067 139.945844,24.7045683 139.887388,24.9509083 L139.678886,25.8124987 L139.470384,26.6928193 L139.361394,27.1423448 C138.947879,28.7298588 137.73618,29.642845 135.101324,29.642845 L130.997629,29.6475275 L127.220904,29.6522101 L122.97031,29.6522101 L122.97031,29.6521951 Z M108.569471,25.007099 C111.435195,25.007099 111.990985,23.6264958 111.79651,22.071136 C111.762306,21.8002201 111.510267,21.5981977 111.256301,21.5981977 L104.295184,21.5981977 C104.054535,21.5981977 103.927766,21.7598396 103.963477,21.9587546 L103.968215,21.9728023 L103.972954,21.9962151 C103.972954,21.9962151 103.982962,22.0447245 104.001386,22.113279 C104.666469,23.8603596 106.024005,25.007099 108.569471,25.007099 Z M41.0764937,23.2605053 C40.8212875,23.2605053 40.568318,23.0573198 40.5125911,22.8109799 L39.7970509,19.6830321 L39.0815106,16.5550843 C39.024874,16.3087443 38.9352561,15.903499 38.8824862,15.6560334 L38.195378,12.4625298 L37.5082698,9.26902619 C37.4548176,9.02268626 37.3441979,8.62294576 37.2618586,8.384023 C37.2618586,8.384023 36.3110146,5.58984782 34.7124504,5.6213146 C34.6448958,5.62333746 34.5796158,5.62000348 34.5134259,5.6213146 C33.7400738,5.63569941 33.1297322,5.64940994 33.1297322,5.64940994 C32.874526,5.65300614 32.6200022,5.45424098 32.561091,5.20924961 L32.0303591,3.01781312 L31.504366,0.826376628 C31.4454547,0.581610029 31.6059253,0.376888655 31.8597668,0.372168637 C32.7650436,0.361829552 34.7952066,0.339390741 36.0250639,0.339390741 C40.0173804,0.339390741 42.1243092,2.52884183 43.4742635,8.81950076 L45.052243,16.0400031 L46.5354489,22.8109799 C46.5900385,23.0573198 46.4212658,23.2605053 46.1658321,23.2605053 L41.0764937,23.2605053 Z" id="jQuery" fill="#FFFFFF"></path>
            </g>
        </g>
    </g>
</svg>