<?xml version="1.0" encoding="UTF-8"?>
<svg width="170px" height="170px" viewBox="0 0 170 170" version="1.1" xmlns="http://www.w3.org/2000/svg" xmlns:xlink="http://www.w3.org/1999/xlink">
    <!-- Generator: Sketch 52.5 (67469) - http://www.bohemiancoding.com/sketch -->
    <title>Artboard Copy 2</title>
    <desc>Created with Sketch.</desc>
    <g id="Artboard-Copy-2" stroke="none" stroke-width="1" fill="none" fill-rule="evenodd">
        <g id="Npm-logo" transform="translate(24.000000, 61.000000)">
            <path d="M0,0 L122,0 L122,41.1428571 L61,41.1428571 L61,48 L33.8888889,48 L33.8888889,41.1428571 L0,41.1428571 L0,0 Z M6.77777778,34.2857143 L20.3333333,34.2857143 L20.3333333,13.7142857 L27.1111111,13.7142857 L27.1111111,34.2857143 L33.8888889,34.2857143 L33.8888889,6.85714286 L6.77777778,6.85714286 L6.77777778,34.2857143 Z M40.6666667,6.85714286 L40.6666667,41.1428571 L54.2222222,41.1428571 L54.2222222,34.2857143 L67.7777778,34.2857143 L67.7777778,6.85714286 L40.6666667,6.85714286 Z M54.2222222,13.7142857 L61,13.7142857 L61,27.4285714 L54.2222222,27.4285714 L54.2222222,13.7142857 Z M74.5555556,6.85714286 L74.5555556,34.2857143 L88.1111111,34.2857143 L88.1111111,13.7142857 L94.8888889,13.7142857 L94.8888889,34.2857143 L101.666667,34.2857143 L101.666667,13.7142857 L108.444444,13.7142857 L108.444444,34.2857143 L115.222222,34.2857143 L115.222222,6.85714286 L74.5555556,6.85714286 Z" id="Shape" fill="#CB3837" fill-rule="nonzero"></path>
            <polygon id="Path" fill="#FFFFFF" points="6.42105263 34.4 20.0657895 34.4 20.0657895 14 26.8881579 14 26.8881579 34.4 33.7105263 34.4 33.7105263 7.2 6.42105263 7.2"></polygon>
            <path d="M40.9342105,7.2 L40.9342105,41.6 L54.5789474,41.6 L54.5789474,34.72 L68.2236842,34.72 L68.2236842,7.2 L40.9342105,7.2 Z M61.4013158,27.84 L54.5789474,27.84 L54.5789474,14.08 L61.4013158,14.08 L61.4013158,27.84 Z" id="Shape" fill="#FFFFFF" fill-rule="nonzero"></path>
            <polygon id="Path" fill="#FFFFFF" points="74.6447368 7.2 74.6447368 34.4 88.2894737 34.4 88.2894737 14 95.1118421 14 95.1118421 34.4 101.934211 34.4 101.934211 14 108.756579 14 108.756579 34.4 115.578947 34.4 115.578947 7.2"></polygon>
        </g>
    </g>
</svg>