<?xml version="1.0" encoding="UTF-8"?>
<svg width="58px" height="39px" viewBox="0 0 58 39" version="1.1" xmlns="http://www.w3.org/2000/svg" xmlns:xlink="http://www.w3.org/1999/xlink">
    <!-- Generator: Sketch 52.5 (67469) - http://www.bohemiancoding.com/sketch -->
    <title>Utopig - white Copy</title>
    <desc>Created with Sketch.</desc>
    <g id="Home" stroke="none" stroke-width="1" fill="none" fill-rule="evenodd">
        <g id="Extra-large:-Desktops---12-col" transform="translate(-1367.000000, -11.000000)" fill="#FFFFFF">
            <g id="Utopig---white-Copy" transform="translate(1367.000000, 11.000000)">
                <path d="M35.7888251,9.66392149 C36.4102347,9.91874629 37.1077318,10.1732506 37.8661125,10.4107149 C40.6015917,11.2672487 43.3831545,11.6852989 46,11.4216857 L45.9078991,10.5154264 C43.4321739,10.7648236 40.7675971,10.3643557 38.140596,9.54178855 C37.4083623,9.31251135 36.7353346,9.0669355 36.1372607,8.82168012 C35.780613,8.67542765 35.5299157,8.5626451 35.4008021,8.5 L35,9.31882803 C35.1457348,9.38953765 35.4137828,9.51012584 35.7888251,9.66392149 Z" id="Shape" fill-rule="nonzero"></path>
                <path d="M7.36617856,17.1577843 C6.93867894,16.8250634 6.39429478,16.5927398 5.73287669,16.5085992 C4.67460368,16.4328346 4.35819029,16.860136 4.26644721,17.6949765 C4.25057426,17.8394166 4.24474014,17.8864429 4.23320436,17.9527394 C4.18858744,18.2091542 4.11389517,18.3226969 3.93478766,18.3995899 C3.72144462,18.4903208 3.60258286,18.4369486 3.143633,18.0086341 C3.12077716,17.9872899 3.12077716,17.9872899 3.09754619,17.9655765 C2.52296872,17.4286535 2.21235899,17.2170923 1.65647758,17.1522825 C0.788201102,17.0510098 0.346775757,17.378282 0.0786473373,17.9911631 C0.0596348447,18.0350425 0.0596348447,18.0350425 0.0427511701,18.0744937 C0.0104158611,18.1497571 -0.105025092,18.6067593 0.263230278,18.7542075 C0.631485648,18.9016557 0.944853949,18.7561799 1.10230028,18.67356 C1.13895327,18.6212555 1.17834035,18.5324459 1.22628335,18.4208541 C1.24373984,18.380078 1.24373984,18.380078 1.25974662,18.3431351 C1.34918057,18.1387092 1.32071646,18.1598125 1.48079687,18.1784837 C1.62281584,18.1950416 1.78843622,18.3078483 2.15635043,18.6516515 C2.17948551,18.6732753 2.17948551,18.6732753 2.20297488,18.6952112 C3.01063519,19.4489595 3.59345559,19.7106615 4.51213626,19.3199449 C5.11164099,19.0625748 5.37957722,18.6552742 5.47618537,18.1000643 C5.4919984,18.0091862 5.49906285,17.9522428 5.51704702,17.788591 C5.55429863,17.4496101 5.49421319,17.5307527 5.58381821,17.5370667 C5.94107255,17.5837171 6.2555684,17.7179326 6.50465505,17.9117956 C6.69405535,18.0592049 6.80370789,18.2026135 6.84074147,18.2760209 L8,17.8776462 C7.90030461,17.6800317 7.69911569,17.4169076 7.36617856,17.1577843 Z" id="Shape" fill-rule="nonzero"></path>
                <path d="M6.3580082,38.3665825 C4.05467184,36.368019 4.01746317,35.8313234 4.00185954,35.6293155 C3.98505563,35.379495 4.07987771,35.0065574 4.3787473,33.9212131 C4.73162948,32.6386421 5.32096671,30.4894692 5.20333932,29.6061328 C5.17573289,29.3885858 5.11211808,29.0718279 5.03409991,28.6785699 C4.53958476,26.1648264 3.50854466,20.936527 5.95831513,17.6482207 C9.33110052,13.1203747 14.6915488,11.3883661 21.9004275,12.4940307 C22.2269035,12.5442338 22.7694298,13.3164061 22.7190181,13.6415312 C22.6686063,13.9678517 22.044461,13.7287891 21.717985,13.675 C14.984417,12.6386635 10.0068579,14.2176721 6.92213957,18.3606273 C4.79044317,21.2245975 5.75066677,26.1038655 6.21277438,28.4478744 C6.29679395,28.8734059 6.3640096,29.2164608 6.39401659,29.4495468 C6.54405152,30.5707505 5.96191596,32.6900406 5.53581674,34.237971 C5.40018516,34.7328307 5.24774966,35.2874559 5.20934072,35.5109795 C5.36417677,35.7739484 5.95951541,36.383558 6.59446326,36.9716521 C7.19220245,36.0010578 8.4717004,34.2714398 10.3525384,33.5446895 C11.3883796,33.1442596 12.0689381,32.9649626 12.7879055,32.7737125 C13.7781361,32.5119389 14.9003974,32.2155013 17.2985559,31.2353446 C20.8093734,29.4866015 20.7781661,25.9974826 20.7601619,23.9128566 C20.7505597,22.8143639 20.743358,22.020676 21.4935327,21.8951681 C21.8248098,21.8365978 22.1308811,22.0613166 22.1848937,22.3852465 C22.2209021,22.6015981 22.1368825,22.8083873 21.9808462,22.9410671 C21.95444,23.1418796 21.9568406,23.5578486 21.9592412,23.9032941 C21.9784456,25.9544513 22.014454,30.2217191 17.793071,32.3230795 C17.6046271,32.3995795 17.4233849,32.4736889 17.2505447,32.5430171 C18.4136155,32.706775 20.0279914,32.6888453 22.8498485,32.4342436 C31.4102419,31.6572901 35.8044652,27.7199288 37.8677457,25.6723575 C36.3817996,25.0244978 34.6605988,24.4316225 33.1962578,24.3850053 C32.866181,24.3742474 32.6057203,24.0981301 32.6165228,23.7670284 C32.6273254,23.4430985 32.8937874,23.1896922 33.2166626,23.1896922 C36.1153376,23.2829266 39.5745431,25.1129509 41.2369302,25.9938967 L41.6306219,26.2018812 C41.9222898,26.3524906 42.3387868,26.6070923 42.8236997,26.9059206 C44.0587873,27.6661397 46.6417888,29.2379764 47.4999887,28.9295856 C48.0749225,28.770609 49.0711545,28.20164 49.5476655,27.827507 C48.2429617,26.9895925 45.7367781,25.3783104 44.6409229,23.0486452 L44.5376988,22.8275123 C43.3242163,20.245636 42.1791496,17.806002 39.294878,15.5384931 C37.4404462,14.0814064 33.7915965,12.8765308 33.7555881,12.8645777 C33.4399146,12.7617808 33.3096705,12.7142615 33.3738992,12.1103352 C33.4381279,11.5064088 33.8156021,11.6214521 34.1312756,11.7302256 C34.2897125,11.7816241 38.0201812,13.0151872 40.0390513,14.6001723 C42.5608385,16.5808061 43.8655423,18.7204165 44.9181874,20.8420973 C48.8022919,18.0785334 52.255496,16.8581187 54.1255315,16.1971106 C54.642852,16.0142277 55.1757761,15.8253682 55.295804,15.740501 C55.7014985,15.3783211 56.618512,13.281742 56.7661464,12.5872651 C56.8813732,12.0589367 56.7073327,11.7577178 56.1876117,11.5748349 C55.8095236,11.4433505 54.9969344,11.5736396 54.4027961,11.6692646 C53.8302627,11.7613037 53.3789577,11.8342178 53.028476,11.7744522 C52.1258659,11.6214521 51.8594038,11.0823659 51.8149935,10.975983 C51.7777848,10.8982877 52.0434656,11.0629444 51.9042332,10.8525693 C51.7469966,10.6158973 52.8094561,9.99890389 52.1517029,9.09644251 C51.9140476,8.77012203 50.3038416,8.95470861 49.944958,8.60209125 C48.325781,7.01471547 45.6599602,5.28987868 41.9775027,5.77995705 C38.6455268,6.2413479 36.1657493,8.56025529 34.3797334,10.5313266 C34.1564814,10.7775611 33.6174906,11.445695 33.5323361,10.5743578 C33.4471816,9.70302064 33.2658741,9.97550598 33.489126,9.7304668 C35.4131741,7.60998138 38.096999,5.11058172 41.8166652,4.59659709 C45.7667851,4.06707339 48.6678606,5.81581644 50.4022645,7.37570002 C51.5965426,8.4514818 52.6623908,9.86553718 52.9132492,10.5241547 C52.8988458,10.4715609 52.9576595,10.5492563 53.2313233,10.5958735 C53.3813582,10.6209751 53.8434658,10.5492563 54.2107513,10.4894906 C55.0077369,10.3639827 55.9127477,10.2169592 56.5813034,10.4464593 C57.6759583,10.8265689 58.1836765,11.7206631 57.9400198,12.8382808 C57.7815829,13.5841562 56.8033551,16.0010793 56.0831874,16.6429624 C55.845532,16.8533375 55.4578417,16.9943844 54.5288254,17.3230955 C52.6875967,17.9733459 49.261999,19.184198 45.4463104,21.9358087 C45.5075247,22.0637072 45.5675387,22.1928011 45.6275526,22.3206996 L45.7307767,22.5406372 C46.6789975,24.5583257 48.9907358,26.0452951 50.1009943,26.7577017 C50.4154676,26.9597097 50.636319,27.1091238 50.72634,27.1916004 C50.9303875,27.3780692 51.0120065,27.6541866 50.9459911,27.9279133 C50.7203386,28.8542809 48.3917963,29.9216955 47.8696747,30.0639377 C46.6045801,30.5301098 44.5509019,29.3682655 42.1959535,27.9195461 C41.7410476,27.6410381 41.3533573,27.3995849 41.0796936,27.2585379 L40.6763997,27.0469675 C40.2623033,26.8270299 39.6933708,26.525811 39.0296162,26.2042718 C37.1715835,28.0737414 32.3956714,32.76415 22.9626748,33.6223848 C18.4580258,34.0311819 16.8172438,33.8435177 15.2988902,33.2709628 C14.35307,33.5948926 13.7013182,33.7670177 13.0975776,33.9271896 C12.3798105,34.1160491 11.7616665,34.279807 10.7870396,34.6551353 C8.60013031,35.5026123 7.30742929,38.1454495 7.29422621,38.1705511 C7.21380748,38.3402856 7.05777115,38.4598169 6.87292811,38.4968716 C6.60766634,38.513606 6.46843391,38.4622075 6.3580082,38.3665825 Z" id="Shape"></path>
                <path d="M23.7470475,14.3368568 C23.7470475,13.8769096 25.0557445,13.6404728 25.1884569,13.5404201 C25.4623883,13.4251909 25.50473,13.3024946 25.4418871,13.1597244 C25.3441483,13.0512549 25.217889,13.0187292 25.0351284,13.0600817 C24.0087187,13.3578991 23.1774263,13.3872457 22.6471249,13.2369127 C22.1168236,13.0865796 21.487378,12.331057 20.9585837,11.4865763 C20.7214862,11.1079334 20.5491428,10.7532104 20.4813727,10.5111999 C20.4591492,10.4318387 23.2338246,10.8478875 23.9165198,10.7309927 C24.22232,10.6590816 24.3188785,10.5024385 24.3188785,10.3456837 C24.3188785,10.1889289 24.2164171,10.0975318 24.0760199,10.0670501 C24.0291641,10.0568534 20.3940391,9.65558916 19.6567391,8.78440368 C19.303556,8.42701249 18.980033,7.72601942 18.8046649,6.99512665 C18.7294997,6.68185565 18.654692,6.52498028 18.6786793,6.41952737 C18.7026666,6.31407446 23.0339197,8.16919285 23.5186349,8.23056894 C24.0033501,8.29194503 24.08188,7.98871437 24.08188,7.87423009 C24.08188,7.7597458 23.999771,7.58293574 23.5956799,7.4580421 C23.3466149,7.38106283 19.0447809,5.94200054 18.4060841,4.48247597 C18.1680513,3.93853307 17.7209438,2.01919839 17.8817533,1.36792268 C17.8948545,1.30320778 17.9094084,1.26802701 17.8846959,1.28752831 C17.8021645,1.35265606 17.7412255,1.33998621 17.8185264,1.4073453 C22.437306,5.70961711 24.9169084,6.7692682 28.7647357,7.12565265 C29.815479,7.22297213 30.3783362,7.2927299 30.9173303,7.52930848 C33.0584212,8.35172084 33.5214121,11.5289672 32.8863302,13.7923302 C32.8863302,13.7923302 32.811208,14.1144429 33.1450886,14.1823737 C33.4789693,14.2503045 33.7065808,14.0125334 33.7065808,14.0125334 C34.4434156,11.386534 33.8527057,7.7628573 31.246816,6.76253331 C30.6163145,6.48526849 29.9842392,6.40289181 28.8449185,6.29736831 C25.182511,5.95815738 22.8821567,4.9751075 18.3947036,0.795470134 C18.0316843,0.478832608 17.6542791,0.400366155 17.3506151,0.639995617 C17.1706795,0.781987718 17.0946049,0.965881078 17.0505416,1.19255549 C16.8348782,2.06385468 17.3506151,4.55072227 17.8185264,5.25516932 C17.9660338,5.47724385 18.3518997,5.70850697 18.3518997,5.70850697 C18.3518997,5.70850697 17.8602594,5.72148269 17.8468711,6.19054656 C17.8392848,6.4563387 17.8859781,6.80760932 17.9765814,7.18522254 C18.1838468,8.04905562 18.566589,8.87836196 19.0447809,9.3622508 C19.4970679,9.82112341 19.9967635,9.84725729 19.9967635,9.84725729 C19.4222225,9.85185615 19.5124259,10.2004022 19.661007,10.7309927 C19.7531412,11.0600081 19.957815,11.4812748 20.2332412,11.9211285 C20.8507349,12.9072613 21.6507468,13.7482935 22.3363297,14.0113734 C22.6646969,14.1375229 22.8713392,14.1080117 22.8713392,14.1080117 C22.550657,15.428848 27.1593505,16.9183155 29.8288578,16.3911652 C29.8288578,16.3911652 30.2453645,16.15598 30.1332713,15.7986728 C30.0211782,15.4413657 29.6605344,15.5756295 29.6605344,15.5756295 C27.5053268,16.0012204 23.6410617,14.7733945 23.7470475,14.3368568 Z" id="Shape" fill-rule="nonzero"></path>
                <path d="M53,10.1131588 C53,8.61952553 50.8205356,8.26074266 48.277728,8.64011577 C46.461837,8.90978369 45.7818088,10.1218833 46.060065,11.5774239 C46.3683167,13.196936 47.9359071,14.0908417 50.1049895,13.0583551 C52.1079382,12.1063472 53,11.3257974 53,10.1131588 Z M47.0004874,11.4221028 C46.8071109,10.4105618 47.2061889,9.69923501 48.4285975,9.5177018 C50.3903912,9.22501293 52.0448784,9.49737418 52.0448784,10.1131588 C52.0448784,10.8694698 51.3721755,11.4580816 49.6702582,12.2670084 C48.1134799,13.0080372 47.203591,12.4891804 47.0004874,11.4221028 Z" id="Shape" fill-rule="nonzero"></path>
            </g>
        </g>
    </g>
</svg>