<?xml version="1.0" encoding="UTF-8"?>
<svg width="45px" height="30px" viewBox="0 0 45 30" version="1.1" xmlns="http://www.w3.org/2000/svg" xmlns:xlink="http://www.w3.org/1999/xlink">
    <!-- Generator: Sketch 49.1 (51147) - http://www.bohemiancoding.com/sketch -->
    <title>Utopig Icon</title>
    <desc>Created with Sketch.</desc>
    <defs></defs>
    <g id="Symbols" stroke="none" stroke-width="1" fill="none" fill-rule="evenodd">
        <g id="Footer" transform="translate(-950.000000, -221.000000)" fill="#27252C">
            <g id="Utopig-Icon">
                <g transform="translate(950.000000, 221.000000)">
                    <path d="M27.8048206,7.10692857 C28.3063457,7.31159144 28.8692792,7.51599692 29.4813504,7.70671668 C31.6890914,8.39464294 33.9340253,8.7304005 36.0460198,8.51867918 L35.9716873,7.79081589 C33.9735877,7.99111957 31.8230705,7.66948319 29.7028796,7.00883734 C29.111911,6.82469306 28.5687261,6.62745849 28.0860348,6.43048132 C27.7981928,6.31301846 27.595861,6.222437 27.4916564,6.17212351 L27.1681784,6.82976631 C27.2857976,6.88655683 27.5021328,6.9834074 27.8048206,7.10692857 Z" id="Shape" fill-rule="nonzero"></path>
                    <path d="M5.46675532,12.972886 C5.15253197,12.6793057 4.75239544,12.4743122 4.26623592,12.4000697 C3.4883777,12.333218 3.25580561,12.7102524 3.18837206,13.4468839 C3.17670503,13.5743323 3.1724168,13.6158266 3.1639377,13.6743241 C3.1311431,13.9005747 3.07624234,14.0007605 2.94459365,14.0686079 C2.78778097,14.1486654 2.70041448,14.1015719 2.36307438,13.7236434 C2.34627474,13.7048101 2.34627474,13.7048101 2.32919937,13.685651 C1.90686997,13.2118906 1.67856373,13.0252171 1.26997642,12.9680314 C0.631770595,12.8786722 0.307311472,13.1674448 0.110230101,13.7082277 C0.0962554242,13.7469451 0.0962554242,13.7469451 0.0838454837,13.7817554 C0.0600781895,13.848165 -0.0247739172,14.2514063 0.245903369,14.381509 C0.516580656,14.5116117 0.746914518,14.3832494 0.862641673,14.3103487 C0.889582575,14.2641972 0.918533106,14.185835 0.953772459,14.0873707 C0.966603432,14.0513914 0.966603432,14.0513914 0.978368828,14.0187943 C1.04410511,13.8384168 1.02318325,13.8570375 1.14084652,13.8735123 C1.24523416,13.8881223 1.36696946,13.9876586 1.63739598,14.2910175 C1.65440086,14.3100975 1.65440086,14.3100975 1.67166616,14.3294529 C2.26531753,14.9945316 2.6937057,15.2254476 3.36895991,14.8806941 C3.8096115,14.6536005 4.00655161,14.294214 4.07756111,13.8043179 C4.0891841,13.7241306 4.09437665,13.6738859 4.10759549,13.5294858 C4.13497639,13.2303819 4.09081203,13.301979 4.15667406,13.3075503 C4.41926529,13.3487129 4.65042794,13.4671395 4.83351311,13.6381968 C4.97272726,13.7682652 5.05332473,13.8948035 5.08054538,13.9595753 L5.93263059,13.6080647 C5.85935188,13.4336972 5.71147278,13.2015265 5.46675532,12.972886 Z" id="Shape" fill-rule="nonzero"></path>
                    <path d="M5.26937788,29.2841631 C3.49814758,27.7551617 3.46953469,27.3445627 3.45753574,27.1900165 C3.44461379,26.9988913 3.51753051,26.7135752 3.74735664,25.8832324 C4.01871761,24.9020012 4.4719089,23.257776 4.38145524,22.5819794 C4.36022632,22.415545 4.31130751,22.1732092 4.25131273,21.8723471 C3.87103817,19.9492072 3.07818417,15.9492957 4.96202005,13.4335763 C7.55564023,9.96954677 11.6777426,8.64447319 17.2212597,9.49036212 C17.4723147,9.52877005 17.8895091,10.1195206 17.8507433,10.3682577 C17.8119774,10.6179092 17.3320192,10.4350143 17.0809642,10.3938629 C11.9029538,9.60101354 8.07528726,10.8090344 5.70318624,13.9786031 C4.06394444,16.169684 4.80234165,19.902569 5.1576953,21.6958535 C5.22230506,22.0214065 5.27399286,22.2838607 5.29706778,22.4621832 C5.41244234,23.3199603 4.96478903,24.9413236 4.63712527,26.1255681 C4.53282667,26.5041606 4.41560611,26.9284768 4.38607022,27.0994835 C4.50513677,27.3006679 4.96294304,27.7670499 5.45120819,28.2169714 C5.91086045,27.474418 6.89477473,26.1511734 8.34111026,25.5951729 C9.13765624,25.2888239 9.66099526,25.1516528 10.2138702,25.0053368 C10.9753423,24.8050669 11.838344,24.5782772 13.682491,23.8284081 C16.3822558,22.4905319 16.3582579,19.8211808 16.344413,18.2263372 C16.337029,17.3859351 16.331491,16.778724 16.9083638,16.6827042 C17.1631109,16.637895 17.398475,16.8098162 17.4400098,17.0576388 C17.4676997,17.2231587 17.40309,17.3813628 17.2831004,17.4828694 C17.2627945,17.6365011 17.2646405,17.9547383 17.2664865,18.2190214 C17.2812544,19.7882597 17.3089443,23.0529337 14.0627656,24.6605799 C13.9178552,24.7191063 13.7784827,24.7758037 13.6455712,24.8288433 C14.5399548,24.9541263 15.7813851,24.9404091 17.9513499,24.7456261 C24.534161,24.1512176 27.9132512,21.1389386 29.4998822,19.5724437 C28.3572125,19.0767985 27.0336355,18.6232192 25.9075798,18.5875546 C25.6537557,18.5793244 25.4534655,18.3680808 25.4617725,18.1147713 C25.4700794,17.8669487 25.6749847,17.6730801 25.9232707,17.6730801 C28.1523073,17.7444091 30.8123832,19.1444696 32.0907334,19.8184374 L32.3934762,19.9775559 C32.6177644,20.0927797 32.9380442,20.2875628 33.3109348,20.5161814 C34.2606982,21.0977872 36.2469867,22.3003212 36.9069292,22.0643868 C37.3490445,21.9427617 38.1151316,21.5074718 38.4815612,21.2212413 C37.478264,20.5801946 35.5510473,19.347483 34.7083515,17.5651721 L34.6289738,17.3959943 C33.6958243,15.4207294 32.8152856,13.5542869 30.597325,11.8195287 C29.1712954,10.7047843 26.3653861,9.78299397 26.3376962,9.77384922 C26.0949481,9.69520441 25.9947924,9.65884979 26.0441833,9.1968158 C26.0935742,8.7347818 26.383846,8.82279572 26.6265941,8.9060129 C26.7484296,8.9453353 29.6171027,9.88907301 31.1695829,11.1016662 C33.1087985,12.6169505 34.1120957,14.2538599 34.9215637,15.8770522 C37.9083804,13.7627871 40.5638413,12.8291086 42.0018699,12.3234042 C42.3996814,12.1834896 42.8094918,12.0390026 42.9017915,11.9740749 C43.2137643,11.6969891 43.9189336,10.0930008 44.0324622,9.56169113 C44.1210699,9.15749339 43.9872354,8.92704581 43.5875779,8.78713121 C43.296834,8.68653902 42.6719653,8.78621674 42.2150821,8.8593747 C41.7748127,8.92978924 41.4277661,8.98557218 41.1582511,8.93984846 C40.4641577,8.82279572 40.2592525,8.41036771 40.2251016,8.32897948 C40.1964887,8.26953863 40.4007932,8.39550928 40.2937256,8.23456177 C40.172813,8.05349581 40.9898281,7.58146487 40.484026,6.89103661 C40.3012727,6.64138507 39.063049,6.78260306 38.787073,6.51283308 C37.5419508,5.29841092 35.4919755,3.97882418 32.6602222,4.35375874 C30.0979839,4.7067459 28.1910731,6.48082647 26.8176543,7.98879496 C26.645977,8.17717671 26.2315013,8.68833274 26.1660188,8.02171604 C26.1005363,7.35509934 25.9611136,7.5635643 26.1327909,7.37609703 C27.6123543,5.75381923 29.6761745,3.84165301 32.5365407,3.44842896 C35.5741222,3.04331675 37.8050048,4.38119297 39.1387347,5.57458222 C40.0571162,6.39760929 40.8767371,7.47943265 41.0696434,7.98330811 C41.0585675,7.94307123 41.1037943,8.00251207 41.3142375,8.03817658 C41.429612,8.05738054 41.7849657,8.00251207 42.0674026,7.95678835 C42.6802723,7.86076852 43.3762117,7.74828816 43.8903207,7.92386726 C44.7320936,8.21467016 45.1225211,8.8986971 44.9351528,9.75373078 C44.8133172,10.3243629 44.0610751,12.1734304 43.5072772,12.6645032 C43.3245239,12.8254507 43.026396,12.9333587 42.3119967,13.1848392 C40.8961201,13.6823133 38.261888,14.608676 35.3276821,16.7137964 C35.374755,16.8116451 35.4209048,16.9104084 35.4670546,17.0082572 L35.5464323,17.1765205 C36.2755996,18.7201535 38.0532908,19.8577598 38.9070626,20.4027866 C39.1488877,20.5573328 39.318719,20.6716421 39.3879438,20.7347408 C39.5448532,20.8773988 39.6076169,21.0886425 39.5568521,21.2980571 C39.3833288,22.0067749 37.5927156,22.8234006 37.1912121,22.9322231 C36.2183738,23.2888682 34.6391267,22.3999989 32.8282076,21.2916558 C32.4783919,21.0785832 32.180264,20.8938594 31.9698208,20.7859514 L31.659694,20.6240894 C31.3412602,20.4558261 30.9037599,20.2253785 30.3933428,19.9793849 C28.9645442,21.409623 25.2919411,24.998021 18.0381116,25.6546137 C14.5741057,25.967364 13.3123694,25.8237915 12.1447789,25.3857582 C11.4174576,25.6335808 10.9162705,25.7652652 10.4520033,25.8878047 C9.90005136,26.0322917 9.42470816,26.1575747 8.67523499,26.4447197 C6.99353536,27.0930822 5.99946812,29.1149853 5.98931516,29.1341893 C5.92747439,29.2640447 5.80748485,29.3554921 5.66534338,29.3838408 C5.46136116,29.3966435 5.35429356,29.3573211 5.26937788,29.2841631 Z" id="Shape"></path>
                    <path d="M18.8320248,10.8480565 C18.8320248,10.4941734 19.8261025,10.3122589 19.9269099,10.2352784 C20.1349864,10.1466212 20.1671489,10.0522187 20.1194138,9.94237141 C20.045172,9.85891497 19.9492663,9.83388974 19.8104426,9.86570636 C19.0307885,10.0948469 18.3993442,10.1174262 17.9965308,10.00176 C17.5937174,9.88609383 17.1155946,9.30479507 16.7139259,8.65505207 C16.5338282,8.36372441 16.4029173,8.09080065 16.3514396,7.90459793 C16.3345587,7.84353749 18.442184,8.16364518 18.9607548,8.07370641 C19.1930387,8.01837806 19.2663839,7.89785693 19.2663839,7.77724984 C19.2663839,7.65664275 19.1885548,7.58632188 19.08191,7.56286928 C19.0463187,7.55502391 16.2851016,7.24629143 15.7250533,6.57600175 C15.4567777,6.30102513 15.2110318,5.76168141 15.0778234,5.19933286 C15.0207283,4.95830231 14.9639049,4.83760247 14.9821255,4.75646705 C15.0003461,4.67533164 18.2903376,6.10265883 18.6585241,6.14988156 C19.0267105,6.19710429 19.0863613,5.96379877 19.0863613,5.87571462 C19.0863613,5.78763047 19.0239919,5.65159289 18.7170469,5.55549978 C18.5278588,5.49627197 15.2602139,4.38905814 14.775064,3.26610064 C14.5942559,2.84759124 14.2546359,1.37085606 14.3767857,0.869764848 C14.3867374,0.819973234 14.3977924,0.79290517 14.3790209,0.807909454 C14.3163306,0.85801872 14.2700417,0.848270539 14.328759,0.900096591 C17.8371537,4.21026244 19.7206435,5.02555748 22.6434279,5.2997595 C23.4415655,5.37463706 23.8691082,5.42830866 24.2785246,5.61033211 C25.9048832,6.24309577 26.256568,8.68766759 25.774164,10.429098 C25.774164,10.429098 25.7171017,10.6769314 25.9707152,10.7291973 C26.2243288,10.7814632 26.397221,10.5985223 26.397221,10.5985223 C26.9569159,8.57807953 26.5082165,5.79002445 24.5287998,5.02037566 C24.049875,4.80704824 23.5697547,4.74366766 22.7043342,4.66247793 C19.9223934,4.40148921 18.1750594,3.6451311 14.7664194,0.429320135 C14.4906724,0.185699376 14.2039978,0.125327325 13.9733367,0.309698116 C13.8366587,0.41894677 13.778873,0.560434232 13.7454028,0.734837418 C13.5815863,1.40521459 13.9733367,3.31860931 14.328759,3.86061053 C14.4408047,4.03147457 14.7339059,4.2094083 14.7339059,4.2094083 C14.7339059,4.2094083 14.3604591,4.21939182 14.3502895,4.58028933 C14.3445269,4.78478967 14.3799949,5.05505712 14.4488165,5.34559255 C14.6062539,6.0102253 14.8969824,6.6482932 15.2602139,7.02059704 C15.6037681,7.3736534 15.9833336,7.39376079 15.9833336,7.39376079 C15.5469161,7.39729916 15.6154339,7.66547031 15.7282952,8.07370641 C15.7982797,8.3268507 15.9537486,8.65097307 16.1629606,8.98939627 C16.6320047,9.74812638 17.2396885,10.3952162 17.7604528,10.5976297 C18.0098783,10.6946891 18.1668425,10.6719831 18.1668425,10.6719831 C17.9232544,11.688234 21.4239878,12.8342296 23.451728,12.4286404 C23.451728,12.4286404 23.7681037,12.247689 23.6829585,11.972777 C23.5978133,11.6978651 23.3238706,11.8011676 23.3238706,11.8011676 C21.6867891,12.1286171 18.7515187,11.1839284 18.8320248,10.8480565 Z" id="Shape" fill-rule="nonzero"></path>
                    <path d="M41.0105716,7.27733378 C41.0105716,6.04783223 39.3256444,5.75249593 37.3598194,6.06478132 C35.955968,6.2867616 35.4302434,7.28451548 35.6453612,8.48266069 C35.8836681,9.81578084 37.0955603,10.5516098 38.7724612,9.70170641 C40.3209255,8.91805001 41.0105716,8.27553139 41.0105716,7.27733378 Z M36.3723945,8.35480629 C36.2228966,7.52214454 36.5314207,6.93660764 37.4764555,6.78717646 C38.9931031,6.54624622 40.2721744,6.77044354 40.2721744,7.27733378 C40.2721744,7.89990001 39.752113,8.38442265 38.4363738,9.05030014 C37.2328405,9.66028662 36.5294123,9.23318359 36.3723945,8.35480629 Z" id="Shape" fill-rule="nonzero"></path>
                </g>
            </g>
        </g>
    </g>
</svg>