<?xml version="1.0" encoding="UTF-8"?>
<svg width="170px" height="170px" viewBox="0 0 170 170" version="1.1" xmlns="http://www.w3.org/2000/svg" xmlns:xlink="http://www.w3.org/1999/xlink">
    <!-- Generator: Sketch 52.5 (67469) - http://www.bohemiancoding.com/sketch -->
    <title>webpack-icon</title>
    <desc>Created with Sketch.</desc>
    <g id="webpack-icon" stroke="none" stroke-width="1" fill="none" fill-rule="evenodd">
        <g transform="translate(43.000000, 37.000000)">
            <polygon id="Path" fill="#FFFFFF" points="42.5 0.016 85 24 85 71.984 42.5 95.968 0 71.984 0 24"></polygon>
            <path d="M77.4141509,70.32 L43.9113208,89.248 L43.9113208,74.528 L64.7924528,63.056 L77.4141509,70.32 Z M79.7075472,68.256 L79.7075472,28.704 L67.454717,35.76 L67.454717,61.2 L79.7075472,68.256 Z M7.45754717,70.32 L40.9603774,89.232 L40.9603774,74.512 L20.0792453,63.056 L7.45754717,70.32 Z M5.16415094,68.256 L5.16415094,28.704 L17.4169811,35.76 L17.4169811,61.2 L5.16415094,68.256 Z M6.59150943,26.144 L40.9603774,6.752 L40.9603774,20.992 L18.940566,33.072 L18.7641509,33.168 L6.59150943,26.144 Z M78.2641509,26.144 L43.9113208,6.752 L43.9113208,20.992 L65.9150943,33.088 L66.0915094,33.184 L78.2641509,26.144 Z" id="Shape" fill="#8ED6FB" fill-rule="nonzero"></path>
            <path d="M40.9603774,71.168 L20.3679245,59.856 L20.3679245,37.472 L40.9603774,49.328 L40.9603774,71.168 Z M43.9113208,71.168 L64.5037736,59.872 L64.5037736,37.472 L43.9113208,49.328 L43.9113208,71.168 Z M21.7471698,34.88 L42.4358491,23.536 L63.1084906,34.88 L42.4358491,46.784 L21.7471698,34.88 Z" id="Shape" fill="#1C78C0" fill-rule="nonzero"></path>
        </g>
    </g>
</svg>